<!-- static/img/bg_animals.svg -->
<svg xmlns="http://www.w3.org/2000/svg" width="1200" height="600" viewBox="0 0 1200 600">
  <g fill="none" stroke="#2b7de91a" stroke-width="10" stroke-linecap="round" stroke-linejoin="round">
    <!-- 犬（シルエット風） -->
    <path d="M260,430 C240,370 260,300 320,260
             C360,240 360,200 340,170
             C360,160 390,170 410,200
             C440,240 460,310 450,400
             C440,460 380,470 340,460
             C300,450 270,450 260,430 Z"/>
    <!-- 猫（シルエット風） -->
    <path d="M560,450 C540,400 540,350 580,320
             C610,300 610,260 600,230
             C630,225 650,245 660,270
             C675,300 685,340 680,400
             C675,455 620,470 585,465
             C565,462 555,460 560,450 Z"/>
    <!-- アーチ -->
    <path d="M160,160 C360,40 840,40 1040,160"/>
  </g>
</svg>